[Header]
# KeyWord<space>Value<CR>FileType htr
DataType HTRS
FileVersion 1.0
NumSegments 3
NumFrames 30
DataFrameRate 24
EulerRotationOrder XYZ
CalibrationUnits m
RotationUnits Degrees
GlobalAxisofGravity Z
BoneLengthAxis Z
ScaleFactor 1.0
[SegmentNames&Hierarchy]
# ObjectName<tab>ParentObjectName<CR>
Bone.000	GLOBAL
Bone.001	Bone.000
Bone.002	Bone.001
[BasePosition]
# ObjectName<tab>Tx<tab>Ty<tab>Tz<tab>Rx<tab>Ry<tab>Rz<tab>BoneLength<CR>
Bone.000	0.000000	0.000000	1.000000	0.000000	-0.000000	-90.000003	1.000000
Bone.001	0.000000	1.000000	0.000000	45.000001	0.000001	0.000001	1.414214
Bone.002	0.000000	1.414214	0.000000	45.000001	0.000007	0.000008	0.500000
[Bone.000]
# Tx<tab>Ty<tab>Tz<tab>Rx<tab>Ry<tab>Rz<tab>BoneScaleFactor<CR>
1	0.000000	0.000000	0.000000	0.000000	-0.000000	0.000000	1.000000
2	0.000000	0.000000	0.000000	0.000000	-0.000000	0.000000	1.000000
3	0.000000	0.000000	0.000000	0.000000	-0.000000	0.000000	1.000000
4	0.000000	0.000000	0.000000	0.000000	-0.000000	0.000000	1.000000
5	0.000000	0.000000	0.000000	0.000000	-0.000000	0.000000	1.000000
6	0.000000	0.000000	0.000000	0.000000	-0.000000	0.000000	1.000000
7	0.000000	0.000000	0.000000	0.000000	-0.000000	0.000000	1.000000
8	0.000000	0.000000	0.000000	0.000000	-0.000000	0.000000	1.000000
9	0.000000	0.000000	0.000000	0.000000	-0.000000	0.000000	1.000000
10	0.000000	0.000000	0.000000	0.000000	-0.000000	0.000000	1.000000
11	0.000000	0.000000	0.000000	-0.523150	-0.000000	0.000000	1.000000
12	0.000000	0.000000	0.000000	-1.943128	-0.000000	0.000000	1.000000
13	0.000000	0.000000	0.000000	-4.035726	-0.000000	0.000000	1.000000
14	0.000000	0.000000	0.000000	-6.576740	-0.000000	0.000000	1.000000
15	0.000000	0.000000	0.000000	-9.341960	-0.000000	0.000000	1.000000
16	0.000000	0.000000	0.000000	-12.107178	-0.000000	0.000000	1.000000
17	0.000000	0.000000	0.000000	-14.648189	-0.000000	0.000000	1.000000
18	0.000000	0.000000	0.000000	-16.740790	-0.000000	0.000000	1.000000
19	0.000000	0.000000	0.000000	-18.160764	-0.000000	0.000000	1.000000
20	0.000000	0.000000	0.000000	-18.683916	0.000000	0.000002	1.000000
21	0.000000	0.000000	0.000000	-18.160766	0.000000	0.000002	1.000000
22	0.000000	0.000000	0.000000	-16.740789	0.000000	0.000002	1.000000
23	0.000000	0.000000	0.000000	-14.648191	0.000000	0.000002	1.000000
24	0.000000	0.000000	0.000000	-12.107178	0.000000	0.000002	1.000000
25	0.000000	0.000000	0.000000	-9.341958	0.000000	0.000002	1.000000
26	0.000000	0.000000	0.000000	-6.576738	0.000000	0.000002	1.000000
27	0.000000	0.000000	0.000000	-4.035728	0.000000	0.000002	1.000000
28	0.000000	0.000000	0.000000	-1.943126	0.000000	0.000002	1.000000
29	0.000000	0.000000	0.000000	-0.523152	0.000000	0.000002	1.000000
30	0.000000	0.000000	0.000000	0.000000	-0.000000	0.000000	1.000000
[Bone.001]
# Tx<tab>Ty<tab>Tz<tab>Rx<tab>Ry<tab>Rz<tab>BoneScaleFactor<CR>
1	0.000000	0.000000	0.000000	0.000000	-0.000000	0.000000	1.000000
2	0.000000	0.000000	0.000000	1.006358	-0.000000	0.000000	1.000000
3	0.000000	0.000000	0.000000	3.809104	-0.000000	0.000000	1.000000
4	0.000000	0.000000	0.000000	8.083749	-0.000000	0.000000	1.000000
5	0.000000	0.000000	0.000000	13.505798	-0.000000	0.000000	1.000000
6	0.000000	0.000000	0.000000	19.750766	-0.000000	0.000000	1.000000
7	0.000000	0.000000	0.000000	26.494159	-0.000000	0.000000	1.000000
8	0.000000	0.000000	0.000000	33.411482	-0.000000	0.000000	1.000000
9	0.000000	0.000000	0.000000	40.178246	-0.000000	0.000000	1.000000
10	0.000000	0.000000	0.000000	46.469971	-0.000003	-0.000005	1.000000
11	0.000000	0.000000	0.000000	52.023065	-0.000003	-0.000005	1.000000
12	0.000000	0.000000	0.000000	56.817612	-0.000003	-0.000005	1.000000
13	0.000000	0.000000	0.000000	60.894586	-0.000003	-0.000005	1.000000
14	0.000000	0.000000	0.000000	64.294982	-0.000003	-0.000005	1.000000
15	0.000000	0.000000	0.000000	67.059794	-0.000003	-0.000005	1.000000
16	0.000000	0.000000	0.000000	69.230005	-0.000003	-0.000005	1.000000
17	0.000000	0.000000	0.000000	70.846588	-0.000003	-0.000005	1.000000
18	0.000000	0.000000	0.000000	71.950551	-0.000003	-0.000005	1.000000
19	0.000000	0.000000	0.000000	72.582870	-0.000003	-0.000005	1.000000
20	0.000000	0.000000	0.000000	72.784538	-0.000002	-0.000008	1.000000
21	0.000000	0.000000	0.000000	70.746573	-0.000002	-0.000008	1.000000
22	0.000000	0.000000	0.000000	65.214947	-0.000002	-0.000007	1.000000
23	0.000000	0.000000	0.000000	57.063082	-0.000002	-0.000006	1.000000
24	0.000000	0.000000	0.000000	47.164382	-0.000002	-0.000005	1.000000
25	0.000000	0.000000	0.000000	36.392269	-0.000002	-0.000004	1.000000
26	0.000000	0.000000	0.000000	25.620156	-0.000002	-0.000003	1.000000
27	0.000000	0.000000	0.000000	15.721466	-0.000002	-0.000002	1.000000
28	0.000000	0.000000	0.000000	7.569591	-0.000002	-0.000001	1.000000
29	0.000000	0.000000	0.000000	2.037958	-0.000002	-0.000000	1.000000
30	0.000000	0.000000	0.000000	0.000000	-0.000000	0.000000	1.000000
[Bone.002]
# Tx<tab>Ty<tab>Tz<tab>Rx<tab>Ry<tab>Rz<tab>BoneScaleFactor<CR>
1	0.000000	0.000000	0.000000	0.000000	-0.000000	0.000000	1.000000
2	0.000000	0.000000	0.000000	-2.327696	-0.000000	-0.000001	1.000000
3	0.000000	0.000000	0.000000	-8.565922	-0.000000	-0.000002	1.000000
4	0.000000	0.000000	0.000000	-17.597385	-0.000000	-0.000004	1.000000
5	0.000000	0.000000	0.000000	-28.304787	-0.000000	-0.000006	1.000000
6	0.000000	0.000000	0.000000	-39.570838	-0.000000	-0.000009	1.000000
7	0.000000	0.000000	0.000000	-50.278238	-0.000000	-0.000011	1.000000
8	0.000000	0.000000	0.000000	-59.309702	-0.000000	-0.000013	1.000000
9	0.000000	0.000000	0.000000	-65.547932	-0.000000	-0.000015	1.000000
10	0.000000	0.000000	0.000000	-67.875620	0.000000	-0.000015	1.000000
11	0.000000	0.000000	0.000000	-66.605375	0.000000	-0.000015	1.000000
12	0.000000	0.000000	0.000000	-63.108469	0.000000	-0.000014	1.000000
13	0.000000	0.000000	0.000000	-57.855616	0.000000	-0.000013	1.000000
14	0.000000	0.000000	0.000000	-51.317527	0.000000	-0.000011	1.000000
15	0.000000	0.000000	0.000000	-43.964937	0.000000	-0.000010	1.000000
16	0.000000	0.000000	0.000000	-36.268561	0.000000	-0.000008	1.000000
17	0.000000	0.000000	0.000000	-28.699109	0.000000	-0.000006	1.000000
18	0.000000	0.000000	0.000000	-21.727317	0.000000	-0.000005	1.000000
19	0.000000	0.000000	0.000000	-15.823902	0.000000	-0.000003	1.000000
20	0.000000	0.000000	0.000000	-11.459577	0.000001	-0.000002	1.000000
21	0.000000	0.000000	0.000000	-8.354032	0.000001	-0.000002	1.000000
22	0.000000	0.000000	0.000000	-5.867304	0.000001	-0.000002	1.000000
23	0.000000	0.000000	0.000000	-3.930635	0.000001	-0.000002	1.000000
24	0.000000	0.000000	0.000000	-2.475269	0.000001	-0.000002	1.000000
25	0.000000	0.000000	0.000000	-1.432447	0.000001	-0.000002	1.000000
26	0.000000	0.000000	0.000000	-0.733413	0.000001	-0.000002	1.000000
27	0.000000	0.000000	0.000000	-0.309408	0.000001	-0.000002	1.000000
28	0.000000	0.000000	0.000000	-0.091678	0.000001	-0.000002	1.000000
29	0.000000	0.000000	0.000000	-0.011460	0.000001	-0.000002	1.000000
30	0.000000	0.000000	0.000000	0.000000	-0.000000	0.000000	1.000000
[EndOfFile]
